<svg width="178" height="32" viewBox="0 0 178 32" fill="none" xmlns="http://www.w3.org/2000/svg">
<g clip-path="url(#clip0_374_5035)">
<path d="M59.6436 0L60.3331 0.309557L60.3538 17.1141C66.525 11.6407 72.6376 6.09248 78.6916 0.472839L79.9845 0H92.7406L93.4302 0.309557L93.4646 17.2637L111.709 0.622515L113.447 0H113.747L113.723 12.8075L108.255 17.6856L103.083 22.448L97.9121 27.2036L92.9578 31.949L80.3362 31.9796L80.3017 12.8211C78.9606 14.1818 77.6298 15.1887 76.3059 16.4269L72.0516 20.4103L66.887 25.1659L62.2845 29.4725C61.3881 30.3127 60.3711 30.908 59.554 31.966L44.5052 31.9592C42.6262 31.1802 41.1782 28.9997 43.8225 28.4826C44.5396 28.2513 45.3257 28.6289 46.1704 29.612C46.1876 20.3559 46.2048 11.0998 46.2186 1.85054C45.336 3.04114 44.4638 3.548 43.595 3.3609C41.5471 3.58882 41.9574 -0.105453 44.3638 0.350377L45.0189 0.00340172H59.6436V0Z" fill="black"/>
<path d="M143.076 0L143.765 0.31636L143.779 17.4032C149.992 11.8108 156.204 6.18773 162.42 0.53407L163.761 0H177.897C177.476 0.870841 176.538 1.29265 175.78 2.00021L171.346 6.1265L166.526 10.5487L161.872 14.9438L166.175 19.4L170.65 24.1522L174.508 28.1799C175.711 29.4351 176.69 30.6733 178.003 31.9456L164.106 32C162.903 31.2278 162.193 30.0304 161.238 29.0303L157.563 25.1829L154.267 21.7268C153.384 22.8664 152.388 23.4141 151.471 24.2747L146.882 28.5813L143.117 31.9864L130.664 31.9728V0H143.079H143.076Z" fill="black"/>
<path d="M12.4116 0L13.1011 0.31636L13.1218 17.4372L31.5941 0.544276L33.2282 0H45.019C44.9363 0.17689 45.0915 0.340172 45.0846 0.697353C44.4157 0.636122 43.4676 0.73137 43.1953 1.25864C42.8712 1.88115 43.0056 2.85064 43.5986 3.3609L43.6848 4.20113C39.7511 7.75593 35.8898 11.3107 32.1009 14.8621L43.4849 26.9859L43.8262 28.486C43.4297 28.9725 43.1229 29.4215 43.1229 29.7855C43.116 31.2618 45.4052 30.9285 44.5088 31.9626H33.2213L29.3152 27.8941L25.6194 24.0468C24.9126 23.312 24.461 22.3017 23.5094 21.7812L17.9381 26.877L12.5633 31.8945L0.00708008 31.9796V0H12.4185H12.4116Z" fill="black"/>
<path d="M127.561 0C125.972 1.17359 124.741 2.78261 123.138 4.1467C122.145 4.99373 121.121 5.7251 120.222 6.70479C118.877 8.17094 117.508 9.40576 115.86 10.5521L115.84 0H127.561Z" fill="#DFA021"/>
<path d="M115.822 14.1308C116.043 13.1817 116.891 12.9402 117.426 12.4469L121.704 8.50095L126.138 4.40187C126.844 3.74874 127.379 3.26229 128.554 2.56494L128.613 31.9762H115.843L115.826 14.1308H115.822Z" fill="black"/>
</g>
<defs>
<clipPath id="clip0_374_5035">
<rect width="178" height="32" fill="white"/>
</clipPath>
</defs>
</svg>
