<svg width="47" height="60" viewBox="0 0 47 60" fill="none" xmlns="http://www.w3.org/2000/svg">
<g clip-path="url(#clip0_350_4405)">
<path d="M11.5852 0V59.7767L0 59.747L0.0137347 0.0148846L11.5852 0Z" fill="black"/>
<path d="M46.1073 41.0667L33.6774 29.9925L45.9768 19.0449C46.6154 18.4793 46.9519 17.7574 47 16.8643V2.85784C47 1.70428 46.4026 0.773991 45.6128 0.342336C44.6995 -0.156299 43.6075 -0.148857 42.7697 0.602818L16.7563 23.7857C13.0823 27.0603 13.3295 33.2002 16.9417 36.4078L42.8315 59.4269C43.6694 60.1712 44.8025 60.134 45.6609 59.6204C46.4644 59.1441 47 58.2064 47 57.09V43.1506C46.9451 42.2798 46.6841 41.5802 46.1073 41.0742V41.0667ZM34.062 11.8482L44.4797 2.58992L44.5209 16.8568L32.146 27.864C28.6574 22.4981 29.5845 16.2987 34.0688 11.8482H34.062Z" fill="black"/>
<path d="M44.514 43.1282L44.4797 57.41L18.7958 34.5696C17.4636 33.5053 16.7082 31.9647 16.6189 30.3349C16.5228 28.5338 17.1752 26.8593 18.4937 25.6909L27.9225 17.3555C27.2221 20.831 27.4899 24.0387 28.8359 27.0751C29.6394 28.9655 30.7175 30.5135 32.0429 32.0392L44.5071 43.1282H44.514Z" fill="black"/>
</g>
<defs>
<clipPath id="clip0_350_4405">
<rect width="47" height="60" fill="white"/>
</clipPath>
</defs>
</svg>
